<svg width="21" height="23" viewBox="0 0 21 23" fill="none" xmlns="http://www.w3.org/2000/svg">
<g clip-path="url(#clip0_161_18539)">
<path fill-rule="evenodd" clipRule="evenodd" d="M15.8043 19.7151H13.7298V16.9337H10.7833V19.7151H8.64166L12.222 22.9981L15.8043 19.7151ZM19.6689 6.35457H16.0597C15.6794 6.35457 15.1512 6.15617 14.9015 5.91284C14.6518 5.66951 14.5001 5.22965 14.5001 4.86279V1.30086H4.96142C4.93069 1.30086 4.90572 1.31584 4.89035 1.33081C4.86346 1.34766 4.85578 1.37012 4.85578 1.40194V17.8228C4.85578 17.8452 4.87307 17.877 4.88651 17.892C4.9038 17.9163 4.93645 17.922 4.9595 17.922H7.44885C7.25101 18.3263 7.10503 18.7624 7.02051 19.2153H4.5523C4.27186 19.2153 4.02216 19.1068 3.83584 18.9252C3.65144 18.7455 3.54004 18.5022 3.54004 18.227V0.995768C3.54004 0.722493 3.65337 0.479167 3.83584 0.297607C4.02216 0.116048 4.27954 0.00748698 4.5523 0.00748698H15.1762C15.1992 0 15.2223 0 15.2473 0C15.3587 0 15.4739 0.0467936 15.5527 0.116048H15.568C15.5853 0.125407 15.593 0.132894 15.6084 0.145996L20.8464 5.31201C20.9347 5.39811 21 5.51603 21 5.64893C21 5.68823 20.9923 5.71818 20.9847 5.76123C20.9847 10.4818 20.9847 13.5084 20.9847 18.2289C20.9847 18.5022 20.8713 18.7474 20.6869 18.9271C20.5006 19.1068 20.2509 19.2172 19.9705 19.2172H17.2871C17.2026 18.7624 17.0586 18.3281 16.8588 17.9238H19.5613C19.5921 17.9238 19.5921 17.907 19.6094 17.8939C19.6343 17.877 19.667 17.8452 19.667 17.8246C19.667 13.4354 19.6689 10.7419 19.6689 6.35457ZM15.6967 4.75985V1.51986L19.4403 5.21468H16.1635C16.0348 5.21468 15.9215 5.1604 15.8331 5.08179C15.7524 5.00317 15.6967 4.88525 15.6967 4.75985Z" fill="#464F60"/>
<path fill-rule="evenodd" clipRule="evenodd" d="M0 7.20898H17.0758V15.2032H0V7.20898Z" fill="#464F60"/>
<path d="M4.83277 11.5922L6.02366 11.9422C5.94299 12.266 5.81814 12.5356 5.64527 12.7546C5.47239 12.9736 5.25919 13.1364 5.00372 13.2468C4.74826 13.3573 4.42556 13.4134 4.0318 13.4134C3.55352 13.4134 3.16168 13.346 2.86012 13.2113C2.55663 13.0765 2.29541 12.8388 2.07452 12.5C1.85363 12.1612 1.74414 11.727 1.74414 11.1973C1.74414 10.4916 1.93814 9.94694 2.32422 9.56885C2.71222 9.18888 3.25964 8.99984 3.96649 8.99984C4.51968 8.99984 4.95762 9.1084 5.27263 9.32552C5.58764 9.54264 5.8239 9.87769 5.97948 10.3269L4.77899 10.5871C4.73673 10.4561 4.69255 10.3625 4.64645 10.3007C4.57154 10.1996 4.47743 10.1229 4.36794 10.0686C4.25846 10.0143 4.1336 9.98625 3.99915 9.98625C3.69182 9.98625 3.45556 10.106 3.2923 10.3475C3.16745 10.5272 3.10598 10.8061 3.10598 11.1879C3.10598 11.6615 3.17897 11.9853 3.32879 12.1612C3.47669 12.3372 3.68606 12.4251 3.95305 12.4251C4.21236 12.4251 4.4102 12.354 4.54273 12.2118C4.67719 12.0676 4.77323 11.8617 4.83277 11.5922ZM6.38477 11.9235L7.67746 11.8449C7.70435 12.0489 7.76198 12.2043 7.84841 12.311C7.98863 12.4832 8.18839 12.5693 8.4477 12.5693C8.6417 12.5693 8.79152 12.5262 8.89716 12.4364C9.00089 12.3484 9.05467 12.2454 9.05467 12.1294C9.05467 12.019 9.00473 11.9198 8.90485 11.8318C8.80497 11.7438 8.57255 11.6615 8.2076 11.5847C7.61215 11.4537 7.18574 11.2834 6.9322 11.0681C6.67673 10.8529 6.54804 10.5777 6.54804 10.2445C6.54804 10.0256 6.61334 9.81779 6.74396 9.62313C6.87457 9.42847 7.07241 9.27498 7.33556 9.16268C7.59871 9.05225 7.95982 8.99609 8.41697 8.99609C8.97976 8.99609 9.40809 9.09717 9.7039 9.29932C9.9997 9.50146 10.1745 9.82528 10.2302 10.267L8.94903 10.34C8.91445 10.1491 8.84338 10.0087 8.7339 9.92074C8.62633 9.83464 8.47459 9.78971 8.28251 9.78971C8.12309 9.78971 8.00592 9.82341 7.92524 9.88704C7.84457 9.95068 7.80615 10.0312 7.80615 10.1248C7.80615 10.1921 7.83881 10.252 7.90411 10.3082C7.96942 10.3643 8.11924 10.4167 8.36126 10.4654C8.95479 10.5889 9.3812 10.7162 9.63667 10.8435C9.89405 10.9708 10.0804 11.128 10.1975 11.3171C10.3147 11.5042 10.3723 11.7157 10.3723 11.9478C10.3723 12.2211 10.2955 12.4738 10.138 12.704C9.98049 12.9361 9.76344 13.1102 9.483 13.23C9.20257 13.3498 8.85106 13.4097 8.42465 13.4097C7.67554 13.4097 7.15885 13.2693 6.87073 12.9904C6.58645 12.7096 6.42319 12.354 6.38477 11.9235ZM10.5644 9.06909H11.9858L12.9769 12.1388L13.9527 9.06909H15.3337L13.7011 13.3348H12.2278L10.5644 9.06909Z" fill="white"/>
</g>
<defs>
<clipPath id="clip0_161_18539">
<rect width="21" height="23" fill="white"/>
</clipPath>
</defs>
</svg>