<svg width="56" height="56" viewBox="0 0 56 56" fill="none" xmlns="http://www.w3.org/2000/svg">
<path d="M37.3333 18.6666C35.4767 18.6666 33.6963 17.9291 32.3835 16.6163C31.0707 15.3036 30.3333 13.5231 30.3333 11.6666V2.33325H16.3333C14.4767 2.33325 12.6963 3.07075 11.3835 4.3835C10.0708 5.69626 9.33325 7.47674 9.33325 9.33325V46.6666C9.33325 48.5231 10.0708 50.3036 11.3835 51.6163C12.6963 52.9291 14.4767 53.6666 16.3333 53.6666H39.6666C41.5231 53.6666 43.3036 52.9291 44.6163 51.6163C45.9291 50.3036 46.6666 48.5231 46.6666 46.6666V18.6666H37.3333ZM37.4499 33.4366L30.4499 38.1033C30.0977 38.3392 29.6879 38.4747 29.2644 38.4953C28.841 38.5158 28.42 38.4206 28.0466 38.2199C27.6784 38.0184 27.3713 37.7214 27.1577 37.36C26.9442 36.9986 26.8321 36.5863 26.8333 36.1666V33.8333H19.8333C19.2144 33.8333 18.6209 33.5874 18.1833 33.1498C17.7458 32.7122 17.4999 32.1188 17.4999 31.4999C17.4999 30.8811 17.7458 30.2876 18.1833 29.85C18.6209 29.4124 19.2144 29.1666 19.8333 29.1666H26.8333V26.8333C26.8321 26.4135 26.9442 26.0012 27.1577 25.6398C27.3713 25.2785 27.6784 24.9814 28.0466 24.7799C28.4115 24.5926 28.8193 24.5047 29.2289 24.5252C29.6385 24.5457 30.0356 24.6738 30.3799 24.8966L37.3799 29.5633C37.6975 29.7767 37.9578 30.065 38.1377 30.4027C38.3177 30.7404 38.4118 31.1172 38.4118 31.4999C38.4118 31.8826 38.3177 32.2594 38.1377 32.5971C37.9578 32.9349 37.6975 33.2231 37.3799 33.4366H37.4499ZM34.9999 11.6666V2.58992C36.1753 2.91586 37.245 3.54325 38.1033 4.40992L44.6366 10.9899C45.4641 11.8299 46.0661 12.8652 46.3866 13.9999H37.3333C36.7144 13.9999 36.1209 13.7541 35.6833 13.3165C35.2458 12.8789 34.9999 12.2854 34.9999 11.6666Z" fill="#FFDA2D"/>
</svg>
