<svg width="48" height="32" viewBox="0 0 48 32" fill="none" xmlns="http://www.w3.org/2000/svg">
<path d="M22.9173 17.075V21.6987H21.4402V10.2801H25.3577C25.8253 10.2704 26.2902 10.3527 26.7256 10.5224C27.161 10.6921 27.5582 10.9457 27.8944 11.2686C28.234 11.5719 28.5042 11.9439 28.687 12.3596C28.8698 12.7752 28.9608 13.2249 28.9541 13.6784C28.9638 14.1344 28.8741 14.587 28.6912 15.0053C28.5083 15.4236 28.2365 15.7977 27.8944 16.1019C27.2094 16.7506 26.3638 17.0747 25.3577 17.0741H22.9173V17.075ZM22.9173 11.6859V15.6719H25.3944C25.666 15.6799 25.9362 15.6315 26.1879 15.5298C26.4395 15.4282 26.6671 15.2755 26.8559 15.0815C27.0437 14.9001 27.193 14.6832 27.295 14.4435C27.397 14.2039 27.4495 13.9463 27.4495 13.6862C27.4495 13.426 27.397 13.1685 27.295 12.9288C27.193 12.6891 27.0437 12.4722 26.8559 12.2908C26.6694 12.0928 26.4427 11.9363 26.1907 11.8319C25.9388 11.7274 25.6673 11.6773 25.3944 11.685H22.9173V11.6859Z" fill="#5F6368"/>
<path d="M32.3577 13.6309C33.4495 13.6309 34.3112 13.9206 34.9431 14.5C35.5749 15.0795 35.8905 15.874 35.8898 16.8834V21.6985H34.477V20.6144H34.4128C33.8012 21.5072 32.9877 21.9537 31.9724 21.9537C31.1057 21.9537 30.3806 21.6985 29.7971 21.1883C29.5171 20.9542 29.2933 20.6609 29.1418 20.3299C28.9904 19.9989 28.9153 19.6385 28.9219 19.2751C28.9219 18.4666 29.2296 17.8237 29.8449 17.3463C30.4601 16.8689 31.2816 16.6296 32.3091 16.6283C33.1862 16.6283 33.9085 16.7878 34.4761 17.1067V16.7714C34.4778 16.5236 34.4239 16.2785 34.3183 16.054C34.2128 15.8294 34.0583 15.631 33.866 15.4731C33.4754 15.1231 32.9663 14.9322 32.4403 14.9383C31.6152 14.9383 30.9623 15.2839 30.4816 15.9751L29.1806 15.1615C29.8962 14.1411 30.9553 13.6309 32.3577 13.6309ZM30.4467 19.3069C30.4457 19.4936 30.4896 19.6778 30.5749 19.8442C30.6601 20.0106 30.7841 20.1544 30.9366 20.2636C31.2633 20.5188 31.6688 20.654 32.0843 20.6462C32.7076 20.6452 33.3051 20.3988 33.7458 19.9611C34.2351 19.5037 34.4797 18.9671 34.4797 18.3512C34.0192 17.9868 33.377 17.8046 32.5531 17.8046C31.9531 17.8046 31.4528 17.9482 31.0522 18.2355C30.6476 18.527 30.4467 18.8815 30.4467 19.3069V19.3069Z" fill="#5F6368"/>
<path d="M43.9999 13.8867L39.0677 25.1432H37.5429L39.3732 21.2046L36.1301 13.8867H37.7356L40.0796 19.499H40.1117L42.3916 13.8867H43.9999Z" fill="#5F6368"/>
<path d="M16.9486 16.0799C16.9492 15.6329 16.9111 15.1867 16.8349 14.7461H10.6055V17.2725H14.1734C14.1004 17.6761 13.9458 18.0607 13.7191 18.4033C13.4924 18.7459 13.1981 19.0394 12.8541 19.266V20.906H14.9835C16.2303 19.7644 16.9486 18.0761 16.9486 16.0799Z" fill="#4285F4"/>
<path d="M10.6053 22.4899C12.3879 22.4899 13.8888 21.9086 14.9833 20.9064L12.8539 19.2665C12.2613 19.6655 11.498 19.8933 10.6053 19.8933C8.88236 19.8933 7.41996 18.7399 6.89702 17.1855H4.70343V18.8756C5.25322 19.9621 6.09626 20.8754 7.13844 21.5136C8.18062 22.1518 9.38091 22.4898 10.6053 22.4899V22.4899Z" fill="#34A853"/>
<path d="M6.89697 17.1835C6.62051 16.369 6.62051 15.487 6.89697 14.6725V12.9824H4.70337C4.24087 13.8964 4 14.9051 4 15.928C4 16.9509 4.24087 17.9596 4.70337 18.8735L6.89697 17.1835Z" fill="#FBBC04"/>
<path d="M10.6053 11.9662C11.5473 11.9509 12.4576 12.3043 13.1393 12.9501L15.0246 11.0779C13.8291 9.96276 12.2453 9.35055 10.6053 9.36957C9.38091 9.36963 8.18061 9.70763 7.13844 10.3459C6.09626 10.9841 5.25322 11.8974 4.70343 12.9839L6.89702 14.6739C7.41996 13.1196 8.88236 11.9662 10.6053 11.9662Z" fill="#EA4335"/>
</svg>
