<svg width="26" height="26" viewBox="0 0 26 26" fill="none" xmlns="http://www.w3.org/2000/svg">
<path d="M9.29512 3.32031L23.6357 13.9844C22.8354 15.065 23.0589 16.5925 24.1395 17.3969L20.2598 22.6091C19.1792 21.8088 17.6517 22.0322 16.8514 23.1128L2.50668 12.4447C3.31105 11.3641 3.08355 9.83656 2.00293 9.03625L5.88262 3.82C6.96324 4.62437 8.48668 4.39687 9.29512 3.32031Z" fill="#65BC6A"/>
<path d="M25.2692 15.1946C25.448 15.3287 25.4845 15.5846 25.3505 15.7634L24.1399 17.3965C23.0592 16.5921 22.8358 15.0646 23.6361 13.984L25.2692 15.1946ZM20.2602 22.6087L19.0495 24.2418C18.9155 24.4206 18.6595 24.4571 18.4808 24.3231L16.8517 23.1124C17.652 22.0318 19.1795 21.8084 20.2602 22.6087ZM15.2552 10.279C16.872 11.4856 17.2092 13.7768 16.0067 15.3977C14.8002 17.0187 12.5089 17.3518 10.892 16.1493C9.2711 14.9427 8.93392 12.6515 10.1364 11.0346C11.343 9.41368 13.6342 9.0765 15.2552 10.279Z" fill="#398F3E"/>
<path d="M11.3744 15.4952C11.4471 15.5492 11.5324 15.5756 11.6165 15.5756C11.7408 15.5756 11.8631 15.5192 11.9427 15.4119L12.2876 14.948C12.3152 14.9521 12.3412 14.9598 12.3693 14.9618C12.3989 14.9638 12.4286 14.9651 12.4578 14.9651C13.0904 14.9651 13.6262 14.4743 13.6729 13.8341C13.6884 13.6204 13.6473 13.4063 13.5539 13.2141C13.5112 13.1264 13.458 13.0439 13.3955 12.9687C13.3723 12.9383 13.3451 12.9106 13.3138 12.8875C13.2269 12.8225 13.17 12.7278 13.1541 12.6206C13.1383 12.5133 13.1651 12.4061 13.2301 12.3191C13.2947 12.2322 13.3898 12.1753 13.497 12.1595C13.6051 12.1441 13.7115 12.1709 13.7989 12.2359C13.857 12.2789 13.9008 12.3346 13.9293 12.4C13.9435 12.4329 13.9532 12.4678 13.9585 12.5028C13.9914 12.725 14.1986 12.8773 14.4196 12.8456C14.6414 12.8127 14.795 12.6068 14.7625 12.3846C14.747 12.2793 14.7178 12.1766 14.6755 12.0786C14.6463 12.0108 14.6036 11.9507 14.5626 11.8897L14.8523 11.5001C14.9863 11.3202 14.949 11.0659 14.7686 10.9318C14.589 10.7981 14.3343 10.8351 14.2002 11.0155L13.9138 11.4006C13.7424 11.3474 13.5612 11.3287 13.3792 11.3559C13.057 11.4035 12.7727 11.5733 12.5785 11.8345C12.1893 12.3581 12.2835 13.0943 12.7832 13.5038C12.7987 13.5245 12.8121 13.5464 12.8235 13.5696C12.8547 13.6342 12.8681 13.7036 12.8629 13.776C12.8466 13.9994 12.6459 14.1684 12.4286 14.1517C12.3201 14.144 12.2214 14.0945 12.1507 14.0124C12.0796 13.9303 12.0447 13.8255 12.0528 13.7175C12.069 13.4936 11.9005 13.299 11.677 13.2828C11.4446 13.2677 11.2586 13.4351 11.2423 13.6586C11.2188 13.9831 11.3232 14.2976 11.5365 14.5438C11.5438 14.5523 11.5527 14.558 11.56 14.5661L11.2919 14.9269C11.1566 15.1072 11.194 15.3616 11.3744 15.4952ZM2.50633 12.4431L13.8082 20.8484H13.8041L2.7582 17.3343C3.16852 16.0506 2.45758 14.6815 1.17383 14.2712L1.62477 12.8534L1.89695 11.9921L2.50633 12.4431Z" fill="#65BC6A"/>
<path d="M13.8048 20.8484L9.8357 19.585L1.69445 13.5319L1.46289 13.3612L1.62539 12.8534L1.89758 11.9922L2.50695 12.4431L13.8048 20.8484Z" fill="#398F3E"/>
<path d="M14.7266 21.5308H4.0625C4.0625 20.1861 2.96969 19.0933 1.625 19.0933V16.9727L2.75844 17.3342L13.8044 20.8483H13.8084L14.7266 21.5308Z" fill="#65BC6A"/>
<path d="M14.7266 21.5308H12.1184L2.75844 18.553L1.625 18.1914V16.9727L2.75844 17.3342L13.8044 20.8483H13.8084L14.7266 21.5308Z" fill="#29752B"/>
<path d="M24.3753 19.0938V21.125C24.3753 21.3484 24.1925 21.5312 23.9691 21.5312H22.7422L22.8559 21.1697L23.4613 19.2725C23.7416 19.1547 24.0503 19.0938 24.3753 19.0938Z" fill="#236823"/>
<path d="M24.375 17.0742V19.0933C24.05 19.0933 23.7413 19.1542 23.4609 19.272L23.9972 17.5861V17.582L24.1394 17.3952L24.375 17.0742Z" fill="#29752B"/>
<path d="M23.9977 17.5859L23.4614 19.2719L22.8561 21.1691C22.5677 21.0756 22.2711 21.0431 21.9827 21.0594C21.7552 21.0716 21.5317 21.1162 21.3164 21.1894L23.9977 17.5859Z" fill="#65BC6A"/>
<path d="M22.8556 21.1697L22.7419 21.5312L22.2381 23.1075C22.1731 23.3188 21.9416 23.4366 21.7303 23.3716L20.085 22.8475L20.2597 22.6078L21.316 21.19C21.5313 21.1169 21.7547 21.0722 21.9822 21.06C22.2706 21.0437 22.5672 21.0763 22.8556 21.1697ZM24.375 10.5625V12.2769L23.5666 12.0169L22.4656 11.6675H22.4616C22.1325 11.2531 21.9375 10.7291 21.9375 10.1562H23.9688C24.1922 10.1562 24.375 10.3391 24.375 10.5625Z" fill="#398F3E"/>
<path d="M22.4613 11.6675L19.0772 10.5909H19.0731L18.4922 10.1562H21.9372C21.9372 10.7291 22.1322 11.2531 22.4613 11.6675Z" fill="#65BC6A"/>
<path d="M4.33504 5.9L3.46973 7.06594V7.06187L3.8841 5.75781L4.33504 5.9Z" fill="#398F3E"/>
<path d="M4.06287 21.5309H2.03162C1.80818 21.5309 1.62537 21.348 1.62537 21.1246V19.0934C2.97006 19.0934 4.06287 20.1862 4.06287 21.5309ZM1.17443 14.2712C2.45818 14.6815 3.16912 16.0505 2.75881 17.3343L1.62537 16.9727L0.820996 16.7168C0.609746 16.6518 0.491934 16.4202 0.556934 16.209L1.17443 14.2712ZM9.29537 3.31461V3.31867C8.48693 4.39523 6.9635 4.62273 5.88287 3.81836L7.09756 2.18929C7.22756 2.00648 7.4835 1.96992 7.66225 2.10398L9.29537 3.31461ZM2.00318 9.03461C3.08381 9.83492 3.31131 11.3624 2.50693 12.443L0.877871 11.2324C0.695059 11.0984 0.658496 10.8424 0.792559 10.6637L2.00318 9.03461Z" fill="#398F3E"/>
<path d="M23.554 12.0523C23.3793 12.5277 23.3509 13.2873 23.4606 13.848L19.0771 10.5898L22.4612 11.6664H22.4653L23.5662 12.0158L23.554 12.0523Z" fill="#65BC6A"/>
<path d="M23.4614 13.8478C23.3517 13.2872 23.3802 12.5275 23.5548 12.0522L23.567 12.0156L24.3755 12.2756L25.1798 12.5316C25.3911 12.5966 25.5089 12.8281 25.4439 13.0394L24.8548 14.8837L23.6361 13.9819L23.4614 13.8478ZM23.9977 17.5853L23.4614 19.2712L22.8561 21.1684C22.5677 21.075 22.2711 21.0425 21.9827 21.0588C21.7552 21.0709 21.5317 21.1156 21.3164 21.1888L23.9977 17.5853Z" fill="#398F3E"/>
<path d="M21.9821 21.0587C21.7546 21.0709 21.5312 21.1156 21.3159 21.1887L20.6131 22.1353L20.2596 22.6065L20.085 22.8462L21.3971 23.2646L21.7303 23.3703C21.9415 23.4353 22.1731 23.3174 22.2381 23.1062L22.7418 21.5299L22.7825 21.3999L22.8556 21.1684C22.5671 21.0749 22.2706 21.0424 21.9821 21.0587Z" fill="#29752B"/>
<path d="M22.8886 11.8L22.4661 11.6659H22.462C22.3727 11.5562 22.2955 11.4384 22.2305 11.3125L22.8886 11.8Z" fill="#236823"/>
<path d="M22.4613 11.6675L19.0772 10.5909H19.0731L18.4922 10.1562H20.6737L22.2297 11.3141C22.2947 11.44 22.3719 11.5578 22.4613 11.6675Z" fill="#29752B"/>
<path d="M23.4118 12.7227C23.4321 12.5561 23.4565 12.3936 23.4931 12.2514L22.8878 11.8005L22.4653 11.6664H22.4612L19.0771 10.5898L23.164 13.6286L23.4606 13.848C23.3956 13.5108 23.3793 13.1005 23.4118 12.7227Z" fill="#398F3E"/>
<path d="M24.8174 14.8558L24.8986 14.7461L24.8539 14.8842L24.8174 14.8558Z" fill="#398F3E"/>
<path d="M25.2683 13.5702L23.6352 12.3595L23.493 12.2539C23.4564 12.3961 23.4321 12.5586 23.4118 12.7252C23.3793 13.103 23.3955 13.5133 23.4605 13.8505L23.6352 13.9845L24.8174 14.858L24.8986 14.7483L25.2724 13.5742L25.2683 13.5702Z" fill="#29752B"/>
</svg>
