<svg width="48" height="32" viewBox="0 0 48 32" fill="none" xmlns="http://www.w3.org/2000/svg">
<path d="M10.7708 11.5174C10.2695 11.1728 9.61522 11 8.8081 11H5.6834C5.43597 11 5.29927 11.1237 5.2733 11.371L4.00398 19.3388C3.99079 19.4171 4.01037 19.4887 4.06254 19.5537C4.11442 19.6189 4.17966 19.6513 4.2578 19.6513H5.74202C6.00234 19.6513 6.14542 19.5279 6.17169 19.2803L6.52316 17.1322C6.536 17.0281 6.58178 16.9435 6.65992 16.8783C6.738 16.8132 6.83566 16.7707 6.95284 16.7512C7.07001 16.7319 7.18051 16.7221 7.28485 16.7221C7.3889 16.7221 7.51252 16.7287 7.65596 16.7416C7.79905 16.7546 7.89026 16.761 7.92936 16.761C9.04897 16.761 9.92777 16.4455 10.5658 15.8138C11.2036 15.1825 11.5228 14.3071 11.5228 13.1871C11.5228 12.419 11.2719 11.8624 10.7708 11.5172V11.5174ZM9.15976 13.9099C9.09445 14.3657 8.9254 14.665 8.65201 14.8082C8.37855 14.9517 7.98798 15.0231 7.48029 15.0231L6.83578 15.0425L7.16785 12.9529C7.19376 12.8098 7.27834 12.7381 7.42167 12.7381H7.79284C8.31337 12.7381 8.69116 12.8132 8.92552 12.9627C9.15976 13.1125 9.2379 13.4283 9.15976 13.9099Z" fill="#003087"/>
<path d="M43.7459 11H42.3009C42.1573 11 42.0727 11.0716 42.0469 11.215L40.7775 19.3392L40.7579 19.3782C40.7579 19.4437 40.784 19.5052 40.8362 19.5638C40.8879 19.6223 40.9534 19.6516 41.0314 19.6516H42.3205C42.5675 19.6516 42.7042 19.5282 42.7307 19.2806L44 11.2931V11.2737C43.9999 11.0913 43.915 11.0002 43.7459 11.0002V11Z" fill="#009CDE"/>
<path d="M26.2867 14.1445C26.2867 14.0795 26.2605 14.0176 26.2088 13.9591C26.1565 13.9006 26.0979 13.8711 26.033 13.8711H24.5292C24.3857 13.8711 24.2685 13.9365 24.1776 14.0663L22.1075 17.113L21.2482 14.1836C21.1828 13.9755 21.0398 13.8711 20.8186 13.8711H19.3537C19.2884 13.8711 19.2299 13.9005 19.1781 13.9591C19.1259 14.0176 19.1 14.0797 19.1 14.1445C19.1 14.1707 19.2269 14.5546 19.4808 15.2967C19.7346 16.0391 20.008 16.8398 20.301 17.6992C20.5939 18.5583 20.7468 19.0143 20.7599 19.0659C19.6922 20.5243 19.1586 21.3055 19.1586 21.4094C19.1586 21.5789 19.2431 21.6634 19.4125 21.6634H20.9162C21.0594 21.6634 21.1765 21.5984 21.2678 21.4682L26.2479 14.2811C26.2737 14.2553 26.2867 14.21 26.2867 14.1444V14.1445Z" fill="#003087"/>
<path d="M40.2896 13.8711H38.8053C38.6228 13.8711 38.5126 14.086 38.4735 14.5157C38.1345 13.9951 37.5165 13.7344 36.618 13.7344C35.6806 13.7344 34.8831 14.086 34.2257 14.789C33.5682 15.4921 33.2396 16.3191 33.2396 17.2694C33.2396 18.0377 33.4641 18.6496 33.9132 19.1051C34.3624 19.5611 34.9644 19.7887 35.7199 19.7887C36.0973 19.7887 36.4814 19.7104 36.872 19.5543C37.2625 19.3981 37.5682 19.1899 37.79 18.9294C37.79 18.9425 37.7767 19.0008 37.751 19.1049C37.7246 19.2093 37.7118 19.2877 37.7118 19.3393C37.7118 19.5479 37.7962 19.6517 37.9657 19.6517H39.3133C39.5604 19.6517 39.7038 19.5283 39.7427 19.2807L40.5436 14.1835C40.5564 14.1053 40.5369 14.0339 40.4849 13.9687C40.4326 13.9037 40.3676 13.8711 40.2896 13.8711ZM37.741 17.7186C37.409 18.0441 37.0086 18.2067 36.54 18.2067C36.1622 18.2067 35.8565 18.1027 35.6221 17.8943C35.3876 17.6864 35.2704 17.4 35.2704 17.035C35.2704 16.5536 35.4332 16.1464 35.7588 15.8145C36.0839 15.4824 36.4879 15.3165 36.9696 15.3165C37.3338 15.3165 37.6366 15.4239 37.8777 15.6386C38.1183 15.8535 38.2391 16.1497 38.2391 16.5274C38.239 16.996 38.073 17.3932 37.741 17.7186Z" fill="#009CDE"/>
<path d="M18.104 13.8711H16.6198C16.4372 13.8711 16.3268 14.086 16.2877 14.5157C15.9362 13.9951 15.3177 13.7344 14.4324 13.7344C13.495 13.7344 12.6974 14.086 12.04 14.789C11.3824 15.4921 11.0538 16.3191 11.0538 17.2694C11.0538 18.0377 11.2785 18.6496 11.7276 19.1051C12.1768 19.5611 12.7788 19.7887 13.5341 19.7887C13.8984 19.7887 14.2762 19.7104 14.6667 19.5543C15.0573 19.3981 15.3698 19.1899 15.6042 18.9294C15.5519 19.0855 15.526 19.2222 15.526 19.3393C15.526 19.5479 15.6106 19.6517 15.7799 19.6517H17.1274C17.3746 19.6517 17.518 19.5283 17.5571 19.2807L18.3577 14.1835C18.3706 14.1053 18.3511 14.0339 18.2992 13.9687C18.2471 13.9037 18.1821 13.8711 18.104 13.8711ZM15.5555 17.7282C15.2234 18.0476 14.8163 18.2067 14.3349 18.2067C13.9571 18.2067 13.6544 18.1027 13.4267 17.8943C13.1988 17.6864 13.0849 17.4 13.0849 17.035C13.0849 16.5536 13.2476 16.1464 13.5732 15.8145C13.8985 15.4824 14.3021 15.3164 14.784 15.3164C15.1484 15.3164 15.4511 15.4239 15.6922 15.6386C15.9329 15.8535 16.0535 16.1497 16.0535 16.5274C16.0534 17.0091 15.8875 17.4096 15.5555 17.7282Z" fill="#003087"/>
<path d="M32.9563 11.5174C32.455 11.1728 31.801 11 30.9937 11H27.8885C27.628 11 27.4847 11.1237 27.4588 11.371L26.1894 19.3388C26.1762 19.4171 26.1958 19.4887 26.248 19.5537C26.2997 19.6189 26.3651 19.6513 26.4432 19.6513H28.0446C28.2008 19.6513 28.3049 19.5668 28.3571 19.3975L28.7086 17.1322C28.7216 17.0281 28.7671 16.9435 28.8454 16.8783C28.9235 16.8132 29.0211 16.7707 29.1384 16.7512C29.2554 16.7319 29.3659 16.7221 29.4703 16.7221C29.5744 16.7221 29.698 16.7287 29.8413 16.7416C29.9845 16.7546 30.0759 16.761 30.1147 16.761C31.2346 16.761 32.1132 16.4455 32.7512 15.8138C33.3892 15.1825 33.7082 14.3071 33.7082 13.1871C33.7082 12.419 33.4575 11.8624 32.9563 11.5172V11.5174ZM30.9547 14.73C30.6682 14.9253 30.2385 15.0229 29.6658 15.0229L29.0407 15.0425L29.3727 12.9527C29.3985 12.8097 29.4832 12.738 29.6265 12.738H29.978C30.2644 12.738 30.4922 12.751 30.6617 12.777C30.8307 12.8032 30.9937 12.8844 31.1499 13.021C31.3062 13.1578 31.3843 13.3564 31.3843 13.6167C31.3843 14.1637 31.2409 14.5346 30.9547 14.73Z" fill="#009CDE"/>
</svg>
