<svg width="64" height="64" viewBox="0 0 64 64" fill="none" xmlns="http://www.w3.org/2000/svg">
<path d="M56 35.9993C55.2928 35.9993 54.6145 36.2803 54.1144 36.7804C53.6143 37.2805 53.3334 37.9588 53.3334 38.666V49.3327C53.3334 50.0399 53.0524 50.7182 52.5523 51.2183C52.0522 51.7184 51.3739 51.9994 50.6667 51.9994H13.3334C12.6261 51.9994 11.9479 51.7184 11.4478 51.2183C10.9477 50.7182 10.6667 50.0399 10.6667 49.3327V23.7593L26.3467 39.4394C27.8467 40.9375 29.88 41.779 32 41.779C34.12 41.779 36.1534 40.9375 37.6534 39.4394L47.2267 29.8927C47.7288 29.3905 48.0109 28.7095 48.0109 27.9993C48.0109 27.2892 47.7288 26.6082 47.2267 26.106C46.7246 25.6039 46.0435 25.3218 45.3334 25.3218C44.6232 25.3218 43.9422 25.6039 43.44 26.106L33.8934 35.6793C33.6455 35.9293 33.3505 36.1277 33.0256 36.2631C32.7006 36.3984 32.3521 36.4681 32 36.4681C31.648 36.4681 31.2995 36.3984 30.9745 36.2631C30.6495 36.1277 30.3546 35.9293 30.1067 35.6793L14.4267 19.9993H45.3334C46.0406 19.9993 46.7189 19.7184 47.219 19.2183C47.7191 18.7182 48 18.0399 48 17.3327C48 16.6254 47.7191 15.9472 47.219 15.4471C46.7189 14.947 46.0406 14.666 45.3334 14.666H13.3334C11.2116 14.666 9.17681 15.5089 7.67652 17.0092C6.17623 18.5095 5.33337 20.5443 5.33337 22.666V49.3327C5.33337 51.4544 6.17623 53.4892 7.67652 54.9895C9.17681 56.4898 11.2116 57.3327 13.3334 57.3327H50.6667C52.7884 57.3327 54.8233 56.4898 56.3236 54.9895C57.8238 53.4892 58.6667 51.4544 58.6667 49.3327V38.666C58.6667 37.9588 58.3858 37.2805 57.8857 36.7804C57.3856 36.2803 56.7073 35.9993 56 35.9993ZM56 6.66602C55.2928 6.66602 54.6145 6.94697 54.1144 7.44706C53.6143 7.94716 53.3334 8.62544 53.3334 9.33268V19.9993C53.3334 20.7066 53.6143 21.3849 54.1144 21.885C54.6145 22.3851 55.2928 22.666 56 22.666C56.7073 22.666 57.3856 22.3851 57.8857 21.885C58.3858 21.3849 58.6667 20.7066 58.6667 19.9993V9.33268C58.6667 8.62544 58.3858 7.94716 57.8857 7.44706C57.3856 6.94697 56.7073 6.66602 56 6.66602ZM55.4667 25.3327C55.2996 25.3619 55.1379 25.4158 54.9867 25.4927C54.8168 25.5511 54.6554 25.6318 54.5067 25.7327L54.1067 26.0527C53.6194 26.5637 53.3432 27.24 53.3334 27.946C53.3203 28.1147 53.3203 28.284 53.3334 28.4527C53.3581 28.6293 53.4122 28.8006 53.4934 28.9593C53.5517 29.1293 53.6324 29.2907 53.7334 29.4394C53.8318 29.5791 53.9387 29.7126 54.0534 29.8393C54.3013 30.0893 54.5962 30.2877 54.9212 30.4231C55.2461 30.5584 55.5947 30.6281 55.9467 30.6281C56.2987 30.6281 56.6473 30.5584 56.9722 30.4231C57.2972 30.2877 57.5921 30.0893 57.84 29.8393L58.16 29.4394C58.261 29.2907 58.3417 29.1293 58.4 28.9593C58.4812 28.8006 58.5353 28.6293 58.56 28.4527C58.5731 28.284 58.5731 28.1147 58.56 27.946C58.5681 27.5461 58.4862 27.1494 58.3202 26.7855C58.1542 26.4215 57.9084 26.0995 57.6011 25.8434C57.2938 25.5873 56.9328 25.4037 56.5448 25.306C56.1569 25.2084 55.752 25.1993 55.36 25.2793L55.4667 25.3327Z" fill="#2775C0"/>
</svg>
