<svg width="20" height="20" viewBox="0 0 20 20" fill="none" xmlns="http://www.w3.org/2000/svg">
<g clip-path="url(#clip0_246_8241)">
<path d="M15.8333 3.33464H15V1.66797H13.3333V3.33464H6.66667V1.66797H5V3.33464H4.16667C3.24167 3.33464 2.50833 4.08464 2.50833 5.0013L2.5 16.668C2.5 17.5846 3.24167 18.3346 4.16667 18.3346H15.8333C16.75 18.3346 17.5 17.5846 17.5 16.668V5.0013C17.5 4.08464 16.75 3.33464 15.8333 3.33464ZM15.8333 16.668H4.16667V8.33464H15.8333V16.668ZM15.8333 6.66797H4.16667V5.0013H15.8333V6.66797ZM7.5 11.668H5.83333V10.0013H7.5V11.668ZM10.8333 11.668H9.16667V10.0013H10.8333V11.668ZM14.1667 11.668H12.5V10.0013H14.1667V11.668ZM7.5 15.0013H5.83333V13.3346H7.5V15.0013ZM10.8333 15.0013H9.16667V13.3346H10.8333V15.0013ZM14.1667 15.0013H12.5V13.3346H14.1667V15.0013Z" fill="#455560"/>
</g>
<defs>
<clipPath id="clip0_246_8241">
<rect width="20" height="20" fill="white"/>
</clipPath>
</defs>
</svg>
