<svg width="18" height="18" viewBox="0 0 18 18" fill="none" xmlns="http://www.w3.org/2000/svg">
<path d="M13.1667 0.666016H4.83335C2.53335 0.666016 0.666687 2.52435 0.666687 4.81602V9.79935V10.6327C0.666687 12.9244 2.53335 14.7827 4.83335 14.7827H6.08335C6.30835 14.7827 6.60835 14.9327 6.75002 15.116L8.00002 16.7744C8.55002 17.5077 9.45002 17.5077 10 16.7744L11.25 15.116C11.4084 14.9077 11.6584 14.7827 11.9167 14.7827H13.1667C15.4667 14.7827 17.3334 12.9244 17.3334 10.6327V4.81602C17.3334 2.52435 15.4667 0.666016 13.1667 0.666016ZM5.66669 8.99935C5.20002 8.99935 4.83335 8.62435 4.83335 8.16602C4.83335 7.70768 5.20835 7.33268 5.66669 7.33268C6.12502 7.33268 6.50002 7.70768 6.50002 8.16602C6.50002 8.62435 6.13335 8.99935 5.66669 8.99935ZM9.00002 8.99935C8.53335 8.99935 8.16669 8.62435 8.16669 8.16602C8.16669 7.70768 8.54169 7.33268 9.00002 7.33268C9.45835 7.33268 9.83335 7.70768 9.83335 8.16602C9.83335 8.62435 9.46669 8.99935 9.00002 8.99935ZM12.3334 8.99935C11.8667 8.99935 11.5 8.62435 11.5 8.16602C11.5 7.70768 11.875 7.33268 12.3334 7.33268C12.7917 7.33268 13.1667 7.70768 13.1667 8.16602C13.1667 8.62435 12.8 8.99935 12.3334 8.99935Z" fill="#72849A"/>
</svg>
