<svg width="21" height="23" viewBox="0 0 21 23" fill="none" xmlns="http://www.w3.org/2000/svg">
<path fill-rule="evenodd" clip-rule="evenodd" d="M15.8043 19.7151H13.7298V16.9337H10.7833V19.7151H8.64163L12.222 22.9981L15.8043 19.7151ZM19.6689 6.35457H16.0597C15.6794 6.35457 15.1512 6.15617 14.9015 5.91284C14.6518 5.66951 14.5 5.22965 14.5 4.86279V1.30086H4.96139C4.93066 1.30086 4.90569 1.31584 4.89032 1.33081C4.86343 1.34766 4.85575 1.37012 4.85575 1.40194V17.8228C4.85575 17.8452 4.87304 17.877 4.88648 17.892C4.90377 17.9163 4.93642 17.922 4.95947 17.922H7.44882C7.25097 18.3263 7.10499 18.7624 7.02048 19.2153H4.55227C4.27183 19.2153 4.02213 19.1068 3.83581 18.9252C3.65141 18.7455 3.54001 18.5022 3.54001 18.227V0.995768C3.54001 0.722493 3.65333 0.479167 3.83581 0.297607C4.02213 0.116048 4.27951 0.00748698 4.55227 0.00748698H15.1762C15.1992 0 15.2223 0 15.2472 0C15.3586 0 15.4739 0.0467936 15.5526 0.116048H15.568C15.5853 0.125407 15.593 0.132894 15.6083 0.145996L20.8463 5.31201C20.9347 5.39811 21 5.51603 21 5.64893C21 5.68823 20.9923 5.71818 20.9846 5.76123C20.9846 10.4818 20.9846 13.5084 20.9846 18.2289C20.9846 18.5022 20.8713 18.7474 20.6869 18.9271C20.5006 19.1068 20.2509 19.2172 19.9704 19.2172H17.2871C17.2026 18.7624 17.0585 18.3281 16.8588 17.9238H19.5613C19.5921 17.9238 19.5921 17.907 19.6093 17.8939C19.6343 17.877 19.667 17.8452 19.667 17.8246C19.667 13.4354 19.6689 10.7419 19.6689 6.35457ZM15.6967 4.75985V1.51986L19.4403 5.21468H16.1634C16.0347 5.21468 15.9214 5.1604 15.8331 5.08179C15.7524 5.00317 15.6967 4.88525 15.6967 4.75985Z" fill="#475569"/>
<path fill-rule="evenodd" clip-rule="evenodd" d="M0 7.20801H17.0758V15.2022H0V7.20801Z" fill="#475569"/>
<path d="M4.83271 11.5932L6.0236 11.9432C5.94293 12.267 5.81808 12.5365 5.6452 12.7555C5.47233 12.9745 5.25913 13.1374 5.00366 13.2478C4.7482 13.3582 4.4255 13.4144 4.03174 13.4144C3.55346 13.4144 3.16162 13.347 2.86006 13.2122C2.55657 13.0775 2.29535 12.8398 2.07446 12.501C1.85356 12.1622 1.74408 11.7279 1.74408 11.1982C1.74408 10.4926 1.93808 9.94792 2.32416 9.56982C2.71216 9.18986 3.25958 9.00081 3.96643 9.00081C4.51962 9.00081 4.95756 9.10938 5.27257 9.3265C5.58758 9.54362 5.82384 9.87866 5.97942 10.3279L4.77893 10.5881C4.73667 10.457 4.69249 10.3634 4.64639 10.3017C4.57148 10.2006 4.47736 10.1239 4.36788 10.0696C4.25839 10.0153 4.13354 9.98722 3.99909 9.98722C3.69176 9.98722 3.4555 10.107 3.29224 10.3485C3.16739 10.5282 3.10592 10.807 3.10592 11.1889C3.10592 11.6624 3.17891 11.9862 3.32873 12.1622C3.47663 12.3381 3.686 12.4261 3.95299 12.4261C4.2123 12.4261 4.41014 12.355 4.54267 12.2127C4.67713 12.0686 4.77317 11.8627 4.83271 11.5932ZM6.38471 11.9245L7.6774 11.8459C7.70429 12.0499 7.76192 12.2052 7.84835 12.3119C7.98857 12.4841 8.18833 12.5702 8.44764 12.5702C8.64164 12.5702 8.79146 12.5272 8.8971 12.4373C9.00082 12.3494 9.05461 12.2464 9.05461 12.1304C9.05461 12.0199 9.00467 11.9207 8.90479 11.8328C8.8049 11.7448 8.57249 11.6624 8.20754 11.5857C7.61209 11.4547 7.18568 11.2843 6.93213 11.0691C6.67667 10.8538 6.54798 10.5787 6.54798 10.2455C6.54798 10.0265 6.61328 9.81877 6.7439 9.6241C6.87451 9.42944 7.07235 9.27596 7.3355 9.16366C7.59865 9.05322 7.95976 8.99707 8.4169 8.99707C8.9797 8.99707 9.40803 9.09814 9.70383 9.30029C9.99964 9.50244 10.1744 9.82625 10.2301 10.268L8.94896 10.341C8.91439 10.1501 8.84332 10.0097 8.73384 9.92171C8.62627 9.83561 8.47453 9.79069 8.28245 9.79069C8.12302 9.79069 8.00586 9.82438 7.92518 9.88802C7.84451 9.95166 7.80609 10.0321 7.80609 10.1257C7.80609 10.1931 7.83875 10.253 7.90405 10.3092C7.96936 10.3653 8.11918 10.4177 8.3612 10.4664C8.95473 10.5899 9.38114 10.7172 9.63661 10.8445C9.89399 10.9718 10.0803 11.129 10.1975 11.318C10.3146 11.5052 10.3723 11.7167 10.3723 11.9488C10.3723 12.2221 10.2954 12.4748 10.1379 12.705C9.98043 12.9371 9.76338 13.1112 9.48294 13.231C9.20251 13.3507 8.851 13.4106 8.42459 13.4106C7.67548 13.4106 7.15879 13.2703 6.87067 12.9914C6.58639 12.7106 6.42312 12.355 6.38471 11.9245ZM10.5643 9.07007H11.9857L12.9769 12.1397L13.9526 9.07007H15.3337L13.701 13.3358H12.2278L10.5643 9.07007Z" fill="white"/>
</svg>
