<svg width="40" height="48" viewBox="0 0 40 48" fill="none" xmlns="http://www.w3.org/2000/svg">
<path d="M34.4443 0H5.55554C4.08212 0 2.66904 0.574466 1.62718 1.59702C0.585314 2.61958 0 4.00646 0 5.45257V25.0818C0 25.3711 0.117063 25.6484 0.325436 25.853C0.533809 26.0575 0.816423 26.1724 1.11111 26.1724H8.88886V46.8921C8.88889 47.0846 8.94083 47.2737 9.0394 47.4401C9.13798 47.6065 9.27966 47.7443 9.45008 47.8395C9.62049 47.9348 9.81356 47.9841 10.0097 47.9824C10.2058 47.9807 10.3979 47.9281 10.5666 47.83L15.4888 44.9292L19.3333 47.7645C19.5256 47.9061 19.7595 47.9827 19.9999 47.9827C20.2403 47.9827 20.4743 47.9061 20.6666 47.7645L24.4444 44.9728L28.3221 47.71C28.5124 47.8465 28.742 47.9201 28.9777 47.9201C29.2134 47.9201 29.4429 47.8465 29.6332 47.71L33.3888 44.9401L38.311 47.8409C38.4807 47.9423 38.6751 47.9973 38.8738 47.9999C39.0725 48.0025 39.2684 47.9528 39.4408 47.8559C39.6133 47.759 39.7562 47.6185 39.8545 47.449C39.9528 47.2795 40.003 47.0872 39.9999 46.8921V5.45257C39.9999 4.00646 39.4145 2.61958 38.3727 1.59702C37.3308 0.574466 35.9177 0 34.4443 0ZM2.22221 23.9913V5.45257C2.22221 5.02295 2.30843 4.59753 2.47595 4.20061C2.64346 3.80369 2.88899 3.44303 3.19852 3.13924C3.50805 2.83545 3.87551 2.59447 4.27993 2.43006C4.68435 2.26565 5.1178 2.18103 5.55554 2.18103C5.99327 2.18103 6.42673 2.26565 6.83114 2.43006C7.23556 2.59447 7.60302 2.83545 7.91255 3.13924C8.22208 3.44303 8.46761 3.80369 8.63512 4.20061C8.80264 4.59753 8.88886 5.02295 8.88886 5.45257V23.9913H2.22221ZM34.4443 39.2585H14.4444V37.0775H34.4443V39.2585ZM34.4443 32.7154H14.4444V30.5344H34.4443V32.7154ZM24.4444 26.1724C22.4666 26.1724 20.5332 25.5967 18.8887 24.5183C17.2442 23.4398 15.9625 21.907 15.2056 20.1136C14.4487 18.3202 14.2507 16.3468 14.6365 14.443C15.0224 12.5391 15.9748 10.7903 17.3733 9.41773C18.7718 8.04513 20.5537 7.11037 22.4935 6.73167C24.4333 6.35297 26.4439 6.54734 28.2712 7.29018C30.0984 8.03303 31.6602 9.291 32.759 10.905C33.8578 12.519 34.4443 14.4166 34.4443 16.3577C34.4443 18.9607 33.3908 21.4571 31.5154 23.2977C29.64 25.1383 27.0965 26.1724 24.4444 26.1724ZM24.4444 8.72412C22.9061 8.72412 21.4023 9.17182 20.1233 10.0106C18.8442 10.8494 17.8473 12.0416 17.2587 13.4365C16.67 14.8313 16.5159 16.3662 16.8161 17.847C17.1162 19.3277 17.8569 20.6879 18.9447 21.7555C20.0324 22.8231 21.4183 23.5501 22.927 23.8446C24.4357 24.1392 25.9996 23.988 27.4208 23.4103C28.842 22.8325 30.0567 21.8541 30.9113 20.5987C31.766 19.3434 32.2221 17.8675 32.2221 16.3577C32.2221 14.3332 31.4027 12.3915 29.9441 10.9599C28.4855 9.52837 26.5071 8.72412 24.4444 8.72412ZM27.7777 14.1767H23.3333V15.2672H26.6666C26.9613 15.2672 27.2439 15.3821 27.4522 15.5866C27.6606 15.7911 27.7777 16.0685 27.7777 16.3577V19.6293C27.7777 19.9185 27.6606 20.1959 27.4522 20.4004C27.2439 20.6049 26.9613 20.7198 26.6666 20.7198H25.5555V21.8103H23.3333V20.7198H21.111V18.5388H25.5555V17.4482H22.2221C21.9275 17.4482 21.6448 17.3333 21.4365 17.1288C21.2281 16.9243 21.111 16.6469 21.111 16.3577V13.0862C21.111 12.797 21.2281 12.5196 21.4365 12.3151C21.6448 12.1106 21.9275 11.9957 22.2221 11.9957H23.3333V10.9051H25.5555V11.9957H27.7777V14.1767Z" fill="#FFDA2D"/>
</svg>
