<svg width="34" height="26" viewBox="0 0 34 26" fill="none" xmlns="http://www.w3.org/2000/svg">
<path d="M33.0833 5.74997L28.4333 1.09997C27.9 0.566636 27 0.933303 27 1.6833V4.66664H3.66667C2.75 4.66664 2 5.41664 2 6.3333C2 7.24997 2.75 7.99997 3.66667 7.99997H27V10.9833C27 11.7333 27.9 12.1 28.4167 11.5666L33.0667 6.91664C33.4 6.59997 33.4 6.06664 33.0833 5.74997Z" fill="#0099A8"/>
<path d="M30.3333 17.9999H6.99994V15.0166C6.99994 14.2666 6.09994 13.8999 5.58328 14.4333L0.933276 19.0833C0.599942 19.3999 0.599942 19.9333 0.916609 20.25L5.56661 24.8999C6.09994 25.4333 6.99994 25.0666 6.99994 24.3166V21.3333H30.3333C31.2499 21.3333 31.9999 20.5833 31.9999 19.6666C31.9999 18.7499 31.2499 17.9999 30.3333 17.9999Z" fill="#0099A8"/>
</svg>
