<svg width="14" height="18" viewBox="0 0 14 18" fill="none" xmlns="http://www.w3.org/2000/svg">
<path d="M3.71001 4.71001C3.32001 4.32001 3.32001 3.69001 3.71001 3.30001L6.30001 0.710011C6.69001 0.320011 7.32001 0.320011 7.71001 0.710011L10.3 3.30001C10.69 3.69001 10.69 4.32001 10.3 4.71001C9.91001 5.10001 9.28001 5.10001 8.89001 4.71001L8.00001 3.83001V8.93001C8.00001 9.99001 8.42001 11.01 9.17001 11.76L13.29 15.88C13.68 16.27 13.68 16.9 13.29 17.29C12.9 17.68 12.27 17.68 11.88 17.29L7.00001 12.41L2.12001 17.29C1.73001 17.68 1.10001 17.68 0.710011 17.29C0.320011 16.9 0.320011 16.27 0.710011 15.88L4.83001 11.76C5.58001 11.01 6.00001 9.99001 6.00001 8.93001V3.83001L5.12001 4.71001C4.73001 5.10001 4.10001 5.10001 3.71001 4.71001Z" fill="#455560"/>
</svg>
