<svg width="18" height="17" viewBox="0 0 18 17" fill="none" xmlns="http://www.w3.org/2000/svg">
    <path d="M15.75 6.18385C14.2417 6.18385 13.625 5.11718 14.375 3.80885C14.8083 3.05052 14.55 2.08385 13.7917 1.65052L12.35 0.825517C11.6917 0.43385 10.8417 0.667183 10.45 1.32552L10.3583 1.48385C9.60832 2.79218 8.37499 2.79218 7.61666 1.48385L7.52499 1.32552C7.14999 0.667183 6.29999 0.43385 5.64166 0.825517L4.19999 1.65052C3.44166 2.08385 3.18332 3.05885 3.61666 3.81718C4.37499 5.11718 3.75832 6.18385 2.24999 6.18385C1.38332 6.18385 0.666656 6.89218 0.666656 7.76718V9.23385C0.666656 10.1005 1.37499 10.8172 2.24999 10.8172C3.75832 10.8172 4.37499 11.8838 3.61666 13.1922C3.18332 13.9505 3.44166 14.9172 4.19999 15.3505L5.64166 16.1755C6.29999 16.5672 7.14999 16.3339 7.54166 15.6755L7.63332 15.5172C8.38332 14.2089 9.61666 14.2089 10.375 15.5172L10.4667 15.6755C10.8583 16.3339 11.7083 16.5672 12.3667 16.1755L13.8083 15.3505C14.5667 14.9172 14.825 13.9422 14.3917 13.1922C13.6333 11.8838 14.25 10.8172 15.7583 10.8172C16.625 10.8172 17.3417 10.1089 17.3417 9.23385V7.76718C17.3333 6.90052 16.625 6.18385 15.75 6.18385ZM8.99999 11.2088C7.50832 11.2088 6.29166 9.99218 6.29166 8.50052C6.29166 7.00885 7.50832 5.79218 8.99999 5.79218C10.4917 5.79218 11.7083 7.00885 11.7083 8.50052C11.7083 9.99218 10.4917 11.2088 8.99999 11.2088Z" fill="#72849A" />
  </svg>