<svg width="18" height="17" viewBox="0 0 18 17" fill="none" xmlns="http://www.w3.org/2000/svg">
<path d="M12.4917 0.166992H5.50832C2.47499 0.166992 0.666656 1.97533 0.666656 5.00866V11.992C0.666656 15.0253 2.47499 16.8337 5.50832 16.8337H12.4917C15.525 16.8337 17.3333 15.0253 17.3333 11.992V5.00866C17.3333 1.97533 15.525 0.166992 12.4917 0.166992ZM7.30832 10.917L5.43332 12.792C5.30832 12.917 5.14999 12.9753 4.99166 12.9753C4.83332 12.9753 4.66666 12.917 4.54999 12.792L3.92499 12.167C3.67499 11.9253 3.67499 11.5253 3.92499 11.2837C4.16666 11.042 4.55832 11.042 4.80832 11.2837L4.99166 11.467L6.42499 10.0337C6.66666 9.79199 7.05832 9.79199 7.30832 10.0337C7.54999 10.2753 7.54999 10.6753 7.30832 10.917ZM7.30832 5.08366L5.43332 6.95866C5.30832 7.08366 5.14999 7.14199 4.99166 7.14199C4.83332 7.14199 4.66666 7.08366 4.54999 6.95866L3.92499 6.33366C3.67499 6.09199 3.67499 5.69199 3.92499 5.45033C4.16666 5.20866 4.55832 5.20866 4.80832 5.45033L4.99166 5.63366L6.42499 4.20033C6.66666 3.95866 7.05832 3.95866 7.30832 4.20033C7.54999 4.44199 7.54999 4.84199 7.30832 5.08366ZM13.6333 12.3503H9.25832C8.91666 12.3503 8.63332 12.067 8.63332 11.7253C8.63332 11.3837 8.91666 11.1003 9.25832 11.1003H13.6333C13.9833 11.1003 14.2583 11.3837 14.2583 11.7253C14.2583 12.067 13.9833 12.3503 13.6333 12.3503ZM13.6333 6.51699H9.25832C8.91666 6.51699 8.63332 6.23366 8.63332 5.89199C8.63332 5.55033 8.91666 5.26699 9.25832 5.26699H13.6333C13.9833 5.26699 14.2583 5.55033 14.2583 5.89199C14.2583 6.23366 13.9833 6.51699 13.6333 6.51699Z" fill="#72849A"/>
</svg>
