<svg width="26" height="26" viewBox="0 0 26 26" fill="none" xmlns="http://www.w3.org/2000/svg">
<g filter="url(#filter0_d_245_7428)">
<path d="M8.28608 18.1894L8.61306 18.3515C9.97546 19.1623 11.5013 19.5407 13.0272 19.5407C17.8229 19.5407 21.7466 15.6488 21.7466 10.8921C21.7466 8.62179 20.8201 6.40557 19.1853 4.78395C17.5504 3.16233 15.3706 2.24341 13.0272 2.24341C8.23159 2.24341 4.30788 6.1353 4.36238 10.9461C4.36238 12.5677 4.85284 14.1353 5.67028 15.4866L5.88826 15.811L5.01633 19.0002L8.28608 18.1894Z" fill="#25D366"/>
<path d="M20.1117 3.91892C18.2589 2.02703 15.6975 1 13.0817 1C7.52316 1 3.0545 5.48649 3.10899 10.9459C3.10899 12.6757 3.59945 14.3514 4.41689 15.8649L3 21L8.2861 19.6486C9.75749 20.4595 11.3924 20.8378 13.0272 20.8378C18.5313 20.8378 23 16.3514 23 10.8919C23 8.24324 21.9646 5.75676 20.1117 3.91892ZM13.0817 19.1622C11.6104 19.1622 10.139 18.7838 8.88556 18.027L8.55858 17.8649L5.39782 18.6757L6.21526 15.5946L5.99728 15.2703C3.59945 11.4324 4.74387 6.35135 8.66757 3.97297C12.5913 1.59459 17.6594 2.72973 20.0572 6.62162C22.455 10.5135 21.3106 15.5405 17.3869 17.9189C16.1335 18.7297 14.6076 19.1622 13.0817 19.1622ZM17.8774 13.1622L17.2779 12.8919C17.2779 12.8919 16.406 12.5135 15.861 12.2432C15.8065 12.2432 15.752 12.1892 15.6975 12.1892C15.5341 12.1892 15.4251 12.2432 15.3161 12.2973C15.3161 12.2973 15.2616 12.3514 14.4986 13.2162C14.4441 13.3243 14.3351 13.3784 14.2262 13.3784H14.1717C14.1172 13.3784 14.0082 13.3243 13.9537 13.2703L13.6812 13.1622C13.0817 12.8919 12.5368 12.5676 12.1008 12.1351C11.9918 12.027 11.8283 11.9189 11.7193 11.8108C11.3379 11.4324 10.9564 11 10.6839 10.5135L10.6294 10.4054C10.5749 10.3514 10.5749 10.2973 10.5204 10.1892C10.5204 10.0811 10.5204 9.97297 10.5749 9.91892C10.5749 9.91892 10.7929 9.64865 10.9564 9.48649C11.0654 9.37838 11.1199 9.21622 11.2289 9.10811C11.3379 8.94595 11.3924 8.72973 11.3379 8.56757C11.2834 8.2973 10.6294 6.83784 10.4659 6.51351C10.3569 6.35135 10.248 6.2973 10.0845 6.24324H9.48501C9.37602 6.24324 9.26703 6.2973 9.15804 6.2973L9.10354 6.35135C8.99455 6.40541 8.88556 6.51351 8.77657 6.56757C8.66758 6.67568 8.61308 6.78378 8.50409 6.89189C8.12262 7.37838 7.90463 7.97297 7.90463 8.56757C7.90463 9 8.01362 9.43243 8.17711 9.81081L8.23161 9.97297C8.72207 11 9.37602 11.9189 10.248 12.7297L10.4659 12.9459C10.6294 13.1081 10.7929 13.2162 10.9019 13.3784C12.0463 14.3514 13.3542 15.0541 14.8256 15.4324C14.9891 15.4865 15.2071 15.4865 15.3706 15.5405H15.9155C16.188 15.5405 16.515 15.4324 16.733 15.3243C16.8965 15.2162 17.0054 15.2162 17.1144 15.1081L17.2234 15C17.3324 14.8919 17.4414 14.8378 17.5504 14.7297C17.6594 14.6216 17.7684 14.5135 17.8229 14.4054C17.9319 14.1892 17.9864 13.9189 18.0409 13.6486V13.2703C18.0409 13.2703 17.9864 13.2162 17.8774 13.1622Z" fill="white"/>
</g>
<defs>
<filter id="filter0_d_245_7428" x="0" y="0" width="26" height="26" filterUnits="userSpaceOnUse" color-interpolation-filters="sRGB">
<feFlood flood-opacity="0" result="BackgroundImageFix"/>
<feColorMatrix in="SourceAlpha" type="matrix" values="0 0 0 0 0 0 0 0 0 0 0 0 0 0 0 0 0 0 127 0" result="hardAlpha"/>
<feOffset dy="2"/>
<feGaussianBlur stdDeviation="1.5"/>
<feColorMatrix type="matrix" values="0 0 0 0 0.0554688 0 0 0 0 0.295833 0 0 0 0 0.223724 0 0 0 0.54 0"/>
<feBlend mode="normal" in2="BackgroundImageFix" result="effect1_dropShadow_245_7428"/>
<feBlend mode="normal" in="SourceGraphic" in2="effect1_dropShadow_245_7428" result="shape"/>
</filter>
</defs>
</svg>
