<svg width="19" height="14" viewBox="0 0 19 14" fill="none" xmlns="http://www.w3.org/2000/svg">
<path d="M19 11.8462C19 12.4174 18.7776 12.9652 18.3817 13.3692C17.9858 13.7731 17.4488 14 16.8889 14H2.11111C1.55121 14 1.01424 13.7731 0.61833 13.3692C0.22242 12.9652 0 12.4174 0 11.8462V2.15385C0 1.58261 0.22242 1.03477 0.61833 0.630847C1.01424 0.226922 1.55121 0 2.11111 0H16.8889C17.4488 0 17.9858 0.226922 18.3817 0.630847C18.7776 1.03477 19 1.58261 19 2.15385V11.8462Z" fill="#EEEEEE"/>
<path d="M19 7V2.15385C19 1.58261 18.7776 1.03477 18.3817 0.630847C17.9858 0.226922 17.4488 0 16.8889 0H2.11111C1.55121 0 1.01424 0.226922 0.61833 0.630847C0.22242 1.03477 0 1.58261 0 2.15385L0 7H19Z" fill="#ED2939"/>
<path d="M3.2954 3.50035C3.2954 2.15445 4.05056 1.02826 5.06706 0.722107C4.86781 0.666351 4.66328 0.637682 4.4579 0.636719C3.77961 0.636719 3.1291 0.938422 2.64947 1.47546C2.16984 2.01249 1.90039 2.74087 1.90039 3.50035C1.90039 4.25984 2.16984 4.98822 2.64947 5.52525C3.1291 6.06229 3.77961 6.36399 4.4579 6.36399C4.66809 6.36399 4.87129 6.33275 5.06706 6.2786C4.05056 5.97245 3.2954 4.84626 3.2954 3.50035Z" fill="white"/>
<path d="M6.33359 1.27344L6.44179 1.62286H6.79092L6.50816 1.83879L6.61636 2.18821L6.33359 1.97229L6.05083 2.18821L6.15903 1.83879L5.87627 1.62286H6.22539L6.33359 1.27344ZM5.37181 4.81321L5.48001 5.16263H5.82914L5.54638 5.37856L5.65458 5.72798L5.37181 5.51206L5.08905 5.72798L5.19725 5.37856L4.91448 5.16263H5.26361L5.37181 4.81321ZM7.29538 4.81321L7.40358 5.16263H7.7527L7.46994 5.37856L7.57814 5.72798L7.29538 5.51206L7.01261 5.72798L7.12081 5.37856L6.83805 5.16263H7.18717L7.29538 4.81321ZM4.89092 2.79048L4.99912 3.13991H5.34825L5.06548 3.35583L5.17369 3.70526L4.89092 3.48933L4.60816 3.70526L4.71636 3.35583L4.43359 3.13991H4.78272L4.89092 2.79048ZM7.77627 2.79048L7.88447 3.13991H8.23359L7.95083 3.35583L8.05903 3.70526L7.77627 3.48933L7.4935 3.70526L7.6017 3.35583L7.31894 3.13991H7.66807L7.77627 2.79048Z" fill="#EEEEEE"/>
</svg>
