<svg width="18" height="18" viewBox="0 0 18 18" fill="none" xmlns="http://www.w3.org/2000/svg">
<path d="M14.0003 9H10.667V10.25H14.0003V9Z" fill="#455560"/>
<path d="M14.0003 11.5H10.667V12.75H14.0003V11.5Z" fill="#455560"/>
<path d="M15.667 4.83335H11.5003V2.33335C11.5003 1.41669 10.7503 0.666687 9.83366 0.666687H8.16699C7.25033 0.666687 6.50033 1.41669 6.50033 2.33335V4.83335H2.33366C1.41699 4.83335 0.666992 5.58335 0.666992 6.50002V15.6667C0.666992 16.5834 1.41699 17.3334 2.33366 17.3334H15.667C16.5837 17.3334 17.3337 16.5834 17.3337 15.6667V6.50002C17.3337 5.58335 16.5837 4.83335 15.667 4.83335ZM8.16699 4.83335V2.33335H9.83366V4.83335V6.50002H8.16699V4.83335ZM15.667 15.6667H2.33366V6.50002H6.50033C6.50033 7.41669 7.25033 8.16669 8.16699 8.16669H9.83366C10.7503 8.16669 11.5003 7.41669 11.5003 6.50002H15.667V15.6667Z" fill="#455560"/>
<path d="M6.5 11.5C7.19036 11.5 7.75 10.9404 7.75 10.25C7.75 9.55964 7.19036 9 6.5 9C5.80964 9 5.25 9.55964 5.25 10.25C5.25 10.9404 5.80964 11.5 6.5 11.5Z" fill="#455560"/>
<path d="M8.23333 12.4833C7.7 12.25 7.11667 12.125 6.5 12.125C5.88333 12.125 5.3 12.25 4.76667 12.4833C4.3 12.6833 4 13.1333 4 13.6417V14H9V13.6417C9 13.1333 8.7 12.6833 8.23333 12.4833Z" fill="#455560"/>
</svg>
