<svg width="20" height="20" viewBox="0 0 20 20" fill="none" xmlns="http://www.w3.org/2000/svg">
<g clip-path="url(#clip0_215_6992)">
<path d="M10.0003 1.66669C5.40033 1.66669 1.66699 5.40002 1.66699 10C1.66699 14.6 5.40033 18.3334 10.0003 18.3334C14.6003 18.3334 18.3337 14.6 18.3337 10C18.3337 5.40002 14.6003 1.66669 10.0003 1.66669ZM10.0003 16.6667C6.32533 16.6667 3.33366 13.675 3.33366 10C3.33366 6.32502 6.32533 3.33335 10.0003 3.33335C13.6753 3.33335 16.667 6.32502 16.667 10C16.667 13.675 13.6753 16.6667 10.0003 16.6667ZM5.41699 14.5834L11.6753 11.675L14.5837 5.41669L8.32533 8.32502L5.41699 14.5834ZM10.0003 9.08335C10.5087 9.08335 10.917 9.49169 10.917 10C10.917 10.5084 10.5087 10.9167 10.0003 10.9167C9.49199 10.9167 9.08366 10.5084 9.08366 10C9.08366 9.49169 9.49199 9.08335 10.0003 9.08335Z" fill="#1A3353"/>
</g>
<defs>
<clipPath id="clip0_215_6992">
<rect width="20" height="20" fill="white"/>
</clipPath>
</defs>
</svg>
