<svg width="20" height="20" viewBox="0 0 20 20" fill="none" xmlns="http://www.w3.org/2000/svg">
<g clip-path="url(#clip0_215_6989)">
<path d="M12.917 0.833313H6.25033C5.10033 0.833313 4.16699 1.76665 4.16699 2.91665V17.0833C4.16699 18.2333 5.10033 19.1666 6.25033 19.1666H12.917C14.067 19.1666 15.0003 18.2333 15.0003 17.0833V2.91665C15.0003 1.76665 14.067 0.833313 12.917 0.833313ZM9.58366 18.3333C8.89199 18.3333 8.33366 17.775 8.33366 17.0833C8.33366 16.3916 8.89199 15.8333 9.58366 15.8333C10.2753 15.8333 10.8337 16.3916 10.8337 17.0833C10.8337 17.775 10.2753 18.3333 9.58366 18.3333ZM13.3337 15H5.83366V3.33331H13.3337V15Z" fill="#1A3353"/>
</g>
<defs>
<clipPath id="clip0_215_6989">
<rect width="20" height="20" fill="white"/>
</clipPath>
</defs>
</svg>
